<svg id="visual" viewBox="0 0 675 900" width="675" height="900" xmlns="http://www.w3.org/2000/svg" xmlns:xlink="http://www.w3.org/1999/xlink" version="1.1"><rect x="0" y="0" width="675" height="900" fill="#FFFFFF"></rect><defs><linearGradient id="grad1_0" x1="0%" y1="0%" x2="100%" y2="100%"><stop offset="30%" stop-color="#ffffff" stop-opacity="1"></stop><stop offset="70%" stop-color="#ffffff" stop-opacity="1"></stop></linearGradient></defs><defs><linearGradient id="grad2_0" x1="0%" y1="0%" x2="100%" y2="100%"><stop offset="30%" stop-color="#ffffff" stop-opacity="1"></stop><stop offset="70%" stop-color="#ffffff" stop-opacity="1"></stop></linearGradient></defs><g transform="translate(675, 0)"><path d="M0 421.9C-35.3 391.1 -70.6 360.3 -114.3 351.9C-158 343.5 -210.1 357.4 -248 341.3C-285.8 325.2 -309.5 279 -326.8 237.5C-344.2 195.9 -355.2 159 -370 120.2C-384.7 81.4 -403.3 40.7 -421.9 0L0 0Z" fill="#F7770F"></path></g><g transform="translate(0, 900)"><path d="M0 -421.9C30.8 -376 61.5 -330 104.8 -322.4C148 -314.8 203.7 -345.4 246.3 -339C288.9 -332.5 318.4 -289 341.3 -248C364.2 -207 380.5 -168.5 392.8 -127.6C405.1 -86.7 413.5 -43.4 421.9 0L0 0Z" fill="#F7770F"></path></g></svg>