<svg id="visual" viewBox="0 0 960 540" width="960" height="540" xmlns="http://www.w3.org/2000/svg" xmlns:xlink="http://www.w3.org/1999/xlink" version="1.1"><rect x="0" y="0" width="960" height="540" fill="#FFFFFF"></rect><defs><linearGradient id="grad1_0" x1="43.8%" y1="0%" x2="100%" y2="100%"><stop offset="14.444444444444446%" stop-color="#ffffff" stop-opacity="1"></stop><stop offset="85.55555555555554%" stop-color="#ffffff" stop-opacity="1"></stop></linearGradient></defs><defs><linearGradient id="grad2_0" x1="0%" y1="0%" x2="56.3%" y2="100%"><stop offset="14.444444444444446%" stop-color="#ffffff" stop-opacity="1"></stop><stop offset="85.55555555555554%" stop-color="#ffffff" stop-opacity="1"></stop></linearGradient></defs><g transform="translate(960, 0)"><path d="M0 432C-50.9 417 -101.8 402 -159.6 385.3C-217.4 368.5 -282.1 350.1 -305.5 305.5C-328.9 260.8 -311 190 -325.2 134.7C-339.4 79.4 -385.7 39.7 -432 0L0 0Z" fill="#F7770F"></path></g><g transform="translate(0, 540)"><path d="M0 -432C56.4 -427.4 112.8 -422.8 165.3 -399.1C217.8 -375.5 266.4 -332.8 282.1 -282.1C297.9 -231.4 280.8 -172.7 300.3 -124.4C319.8 -76 375.9 -38 432 0L0 0Z" fill="#F7770F"></path></g></svg>